<?xml version="1.0" encoding="UTF-8" standalone="no"?>
<!-- Created with Inkscape (http://www.inkscape.org/) -->

<svg
   xmlns:dc="http://purl.org/dc/elements/1.1/"
   xmlns:cc="http://creativecommons.org/ns#"
   xmlns:rdf="http://www.w3.org/1999/02/22-rdf-syntax-ns#"
   xmlns:svg="http://www.w3.org/2000/svg"
   xmlns="http://www.w3.org/2000/svg"
   xmlns:xlink="http://www.w3.org/1999/xlink"
   xmlns:sodipodi="http://sodipodi.sourceforge.net/DTD/sodipodi-0.dtd"
   xmlns:inkscape="http://www.inkscape.org/namespaces/inkscape"
   version="1.0"
   width="72.002945"
   height="28.008076"
   id="svg1332"
   inkscape:version="0.48.1 r9760"
   sodipodi:docname="XML.svg">
  <metadata
     id="metadata59">
    <rdf:RDF>
      <cc:Work
         rdf:about="">
        <dc:format>image/svg+xml</dc:format>
        <dc:type
           rdf:resource="http://purl.org/dc/dcmitype/StillImage" />
      </cc:Work>
    </rdf:RDF>
  </metadata>
  <sodipodi:namedview
     pagecolor="#ffffff"
     bordercolor="#666666"
     borderopacity="1"
     objecttolerance="10"
     gridtolerance="10"
     guidetolerance="10"
     inkscape:pageopacity="0"
     inkscape:pageshadow="2"
     inkscape:window-width="1280"
     inkscape:window-height="967"
     id="namedview57"
     showgrid="false"
     fit-margin-top="0"
     fit-margin-left="0"
     fit-margin-right="0"
     fit-margin-bottom="0"
     inkscape:zoom="0.848"
     inkscape:cx="-63.1769"
     inkscape:cy="149.37238"
     inkscape:window-x="0"
     inkscape:window-y="0"
     inkscape:window-maximized="1"
     inkscape:current-layer="svg1332" />
  <defs
     id="defs1334">
    <linearGradient
       x1="0.052173913"
       y1="0.9765625"
       x2="0.78260869"
       y2="0.0078125"
       id="linearGradient1506"
       xlink:href="#linearGradient1507" />
    <linearGradient
       id="linearGradient1507">
      <stop
         id="stop1508"
         style="stop-color:#000000;stop-opacity:0.09550562"
         offset="0" />
      <stop
         id="stop1510"
         style="stop-color:#000000;stop-opacity:0"
         offset="1" />
    </linearGradient>
    <linearGradient
       x1="1.5572519"
       y1="-0.55303031"
       x2="0.062992126"
       y2="0.546875"
       id="linearGradient1499"
       xlink:href="#linearGradient1501" />
    <linearGradient
       id="linearGradient1501">
      <stop
         id="stop1502"
         style="stop-color:#ffffff;stop-opacity:1"
         offset="0" />
      <stop
         id="stop1504"
         style="stop-color:#ffffff;stop-opacity:0"
         offset="1" />
    </linearGradient>
    <linearGradient
       x1="0.88034189"
       y1="0.2109375"
       x2="0.085470088"
       y2="1.1796875"
       id="linearGradient1495"
       xlink:href="#linearGradient1492" />
    <linearGradient
       id="linearGradient1492">
      <stop
         id="stop1493"
         style="stop-color:#dadada;stop-opacity:1"
         offset="0" />
      <stop
         id="stop1496"
         style="stop-color:#f1f1f1;stop-opacity:1"
         offset="0.34923077" />
      <stop
         id="stop1494"
         style="stop-color:#f0f0f0;stop-opacity:1"
         offset="1" />
    </linearGradient>
    <linearGradient
       x1="0.63247865"
       y1="0.328125"
       x2="-0.37606838"
       y2="1.328125"
       id="linearGradient1497"
       xlink:href="#linearGradient1492" />
  </defs>
  <g
     transform="scale(2,2)"
     id="g986">
    <defs
       id="defs5" />
    <path
       d="M 35.997699,13.999941 34.994894,13.020969 34.9751,0.99486069 35.99783,0.00794409 35.997699,13.999941 z"
       id="path2764"
       style="fill:#803300;fill-rule:evenodd;stroke:none"
       inkscape:connector-curvature="0" />
    <rect
       width="34.007584"
       height="12.029619"
       x="0.98731136"
       y="0.99499226"
       id="rect1873"
       style="fill:#ff6600;fill-opacity:1;stroke:none" />
    <path
       d="M 2.63178e-4,0 36.001474,0.00403784 34.982912,0.99108607 0.99903014,1.0028048 2.63178e-4,0 z"
       id="path1875"
       style="fill:#ffccaa;fill-opacity:1;fill-rule:evenodd;stroke:none"
       inkscape:connector-curvature="0" />
    <path
       d="m 0.00403784,14.000263 35.99730416,0.0038 -1.006843,-0.987048 -34.0073192,0 -0.98314196,0.983273 z"
       id="path2762"
       style="fill:#552200;fill-opacity:1;fill-rule:evenodd;stroke:none"
       inkscape:connector-curvature="0" />
    <path
       d="M 0.99512389,13.008723 3.94767e-4,13.999941 0,0 0.99108604,0.99095444 0.99512389,13.008723 z"
       id="path3651"
       style="fill:#ff9955;fill-rule:evenodd;stroke:none"
       inkscape:connector-curvature="0" />
    <g
       id="g4580">
      <path
         d="m 4.8170128,3.8673983 2.9238281,0 1.5234375,2.6425781 1.4765626,-2.6425781 2.894531,0 -2.671875,4.1601562 2.923828,4.4296875 -2.982422,0 -1.693359,-2.7597656 -1.6992187,2.7597656 -2.9648438,0 L 7.5123253,7.9806795 4.8170128,3.8673983 z m 9.8906252,0 3.492187,0 1.347657,5.2265625 1.341796,-5.2265625 3.480469,0 0,8.5898437 -2.167969,0 0,-6.5507812 -1.68164,6.5507812 -1.962891,0 -1.675781,-6.5507812 0,6.5507812 -2.173828,0 0,-8.5898437 z m 11.349609,0 2.654297,0 0,6.4746097 4.142578,0 0,2.115234 -6.796875,0 0,-8.5898437 z"
         id="text4574"
         style="font-size:12px;font-style:normal;font-variant:normal;font-weight:800;font-stretch:normal;writing-mode:lr-tb;text-anchor:start;fill:#803300;fill-opacity:1;stroke:none;font-family:Arial Black"
         inkscape:connector-curvature="0" />
      <path
         d="m 4.2424884,2.9393196 2.9238281,0 1.5234375,2.6425781 1.476563,-2.6425781 2.894531,0 -2.671875,4.1601563 2.923828,4.4296871 -2.982422,0 -1.6933594,-2.7597653 -1.6992187,2.7597653 -2.9648438,0 L 6.9378009,7.0526009 4.2424884,2.9393196 z m 9.8906246,0 3.492188,0 1.347656,5.2265625 1.341797,-5.2265625 3.480469,0 0,8.5898434 -2.167969,0 0,-6.5507809 -1.681641,6.5507809 -1.96289,0 -1.675781,-6.5507809 0,6.5507809 -2.173829,0 0,-8.5898434 z m 11.34961,0 2.654297,0 0,6.4746094 4.142578,0 0,2.115234 -6.796875,0 0,-8.5898434 z"
         id="text4570"
         style="font-size:12px;font-style:normal;font-variant:normal;font-weight:800;font-stretch:normal;writing-mode:lr-tb;text-anchor:start;fill:#ffffff;fill-opacity:1;stroke:none;font-family:Arial Black"
         inkscape:connector-curvature="0" />
    </g>
  </g>
</svg>
