<?xml version="1.0" encoding="UTF-8" standalone="no"?>
<!DOCTYPE svg PUBLIC "-//W3C//DTD SVG 1.1//EN"
 "http://www.w3.org/Graphics/SVG/1.1/DTD/svg11.dtd">
<!-- Generated by graphviz version 2.28.0 (20120228.1926)
 -->
<!-- Title: DoxGen_States Pages: 1 -->
<svg width="770pt" height="347pt"
 viewBox="0.00 0.00 770.00 347.09" xmlns="http://www.w3.org/2000/svg" xmlns:xlink="http://www.w3.org/1999/xlink">
<g id="graph1" class="graph" transform="scale(1 1) rotate(0) translate(4 343.092)">
<title>DoxGen_States</title>
<polygon fill="white" stroke="white" points="-4,5 -4,-343.092 767,-343.092 767,5 -4,5"/>
<g id="graph3" class="cluster"><title>cluster0</title>
<polygon fill="none" stroke="black" points="8,-145.092 8,-331.092 240,-331.092 240,-145.092 8,-145.092"/>
<text text-anchor="middle" x="124" y="-315.892" font-family="Times,serif" font-size="14.00">Legend</text>
</g>
<!-- t -->
<g id="node2" class="node"><title>t</title>
<polygon fill="lightgrey" stroke="lightgrey" points="68,-136.092 18,-136.092 6,-124.092 6,-112.092 18,-100.092 68,-100.092 80,-112.092 80,-124.092 68,-136.092"/>
<path fill="lightgrey" stroke="lightgrey" d="M18,-136.092C12,-136.092 6,-130.092 6,-124.092"/>
<path fill="lightgrey" stroke="lightgrey" d="M6,-112.092C6,-106.092 12,-100.092 18,-100.092"/>
<path fill="lightgrey" stroke="lightgrey" d="M68,-100.092C74,-100.092 80,-106.092 80,-112.092"/>
<path fill="lightgrey" stroke="lightgrey" d="M80,-124.092C80,-130.092 74,-136.092 68,-136.092"/>
<polyline fill="none" stroke="black" points="68,-136.092 18,-136.092 "/>
<path fill="none" stroke="black" d="M18,-136.092C12,-136.092 6,-130.092 6,-124.092"/>
<polyline fill="none" stroke="black" points="6,-124.092 6,-112.092 "/>
<path fill="none" stroke="black" d="M6,-112.092C6,-106.092 12,-100.092 18,-100.092"/>
<polyline fill="none" stroke="black" points="18,-100.092 68,-100.092 "/>
<path fill="none" stroke="black" d="M68,-100.092C74,-100.092 80,-106.092 80,-112.092"/>
<polyline fill="none" stroke="black" points="80,-112.092 80,-124.092 "/>
<path fill="none" stroke="black" d="M80,-124.092C80,-130.092 74,-136.092 68,-136.092"/>
<text text-anchor="middle" x="43" y="-114.392" font-family="Times,serif" font-size="14.00">Templates</text>
</g>
<!-- l -->
<g id="node3" class="node"><title>l</title>
<polygon fill="lightgrey" stroke="lightgrey" points="220,-136.092 190,-136.092 178,-124.092 178,-112.092 190,-100.092 220,-100.092 232,-112.092 232,-124.092 220,-136.092"/>
<path fill="lightgrey" stroke="lightgrey" d="M190,-136.092C184,-136.092 178,-130.092 178,-124.092"/>
<path fill="lightgrey" stroke="lightgrey" d="M178,-112.092C178,-106.092 184,-100.092 190,-100.092"/>
<path fill="lightgrey" stroke="lightgrey" d="M220,-100.092C226,-100.092 232,-106.092 232,-112.092"/>
<path fill="lightgrey" stroke="lightgrey" d="M232,-124.092C232,-130.092 226,-136.092 220,-136.092"/>
<polyline fill="none" stroke="black" points="220,-136.092 190,-136.092 "/>
<path fill="none" stroke="black" d="M190,-136.092C184,-136.092 178,-130.092 178,-124.092"/>
<polyline fill="none" stroke="black" points="178,-124.092 178,-112.092 "/>
<path fill="none" stroke="black" d="M178,-112.092C178,-106.092 184,-100.092 190,-100.092"/>
<polyline fill="none" stroke="black" points="190,-100.092 220,-100.092 "/>
<path fill="none" stroke="black" d="M220,-100.092C226,-100.092 232,-106.092 232,-112.092"/>
<polyline fill="none" stroke="black" points="232,-112.092 232,-124.092 "/>
<path fill="none" stroke="black" d="M232,-124.092C232,-130.092 226,-136.092 220,-136.092"/>
<text text-anchor="middle" x="205" y="-114.392" font-family="Times,serif" font-size="14.00">List</text>
</g>
<!-- t&#45;&gt;l -->
<g id="edge4" class="edge"><title>t&#45;&gt;l</title>
<path fill="none" stroke="black" stroke-dasharray="5,2" d="M80.3065,-112.331C106.4,-111.014 141.439,-111.012 167.563,-112.324"/>
<polygon fill="black" stroke="black" points="167.613,-115.834 177.806,-112.942 168.035,-108.846 167.613,-115.834"/>
</g>
<!-- t&#45;&gt;l -->
<g id="edge10" class="edge"><title>t&#45;&gt;l</title>
<path fill="none" stroke="black" d="M80.3065,-123.853C106.4,-125.169 141.439,-125.172 167.563,-123.859"/>
<polygon fill="black" stroke="black" points="168.035,-127.337 177.806,-123.242 167.613,-120.35 168.035,-127.337"/>
</g>
<!-- c -->
<g id="node4" class="node"><title>c</title>
<polygon fill="lightyellow" stroke="lightyellow" points="348,-195.092 318,-195.092 306,-183.092 306,-171.092 318,-159.092 348,-159.092 360,-171.092 360,-183.092 348,-195.092"/>
<path fill="lightyellow" stroke="lightyellow" d="M318,-195.092C312,-195.092 306,-189.092 306,-183.092"/>
<path fill="lightyellow" stroke="lightyellow" d="M306,-171.092C306,-165.092 312,-159.092 318,-159.092"/>
<path fill="lightyellow" stroke="lightyellow" d="M348,-159.092C354,-159.092 360,-165.092 360,-171.092"/>
<path fill="lightyellow" stroke="lightyellow" d="M360,-183.092C360,-189.092 354,-195.092 348,-195.092"/>
<polyline fill="none" stroke="black" points="348,-195.092 318,-195.092 "/>
<path fill="none" stroke="black" d="M318,-195.092C312,-195.092 306,-189.092 306,-183.092"/>
<polyline fill="none" stroke="black" points="306,-183.092 306,-171.092 "/>
<path fill="none" stroke="black" d="M306,-171.092C306,-165.092 312,-159.092 318,-159.092"/>
<polyline fill="none" stroke="black" points="318,-159.092 348,-159.092 "/>
<path fill="none" stroke="black" d="M348,-159.092C354,-159.092 360,-165.092 360,-171.092"/>
<polyline fill="none" stroke="black" points="360,-171.092 360,-183.092 "/>
<path fill="none" stroke="black" d="M360,-183.092C360,-189.092 354,-195.092 348,-195.092"/>
<text text-anchor="middle" x="333" y="-173.392" font-family="Times,serif" font-size="14.00">Create</text>
</g>
<!-- l&#45;&gt;c -->
<g id="edge32" class="edge"><title>l&#45;&gt;c</title>
<path fill="none" stroke="black" d="M232.142,-132.453C235.144,-134.999 237.881,-137.879 240,-141.092 252.957,-160.739 231.855,-178.104 250,-193.092 262.78,-203.648 280.491,-201.591 296.183,-196.078"/>
<polygon fill="black" stroke="black" points="297.658,-199.258 305.631,-192.281 295.047,-192.763 297.658,-199.258"/>
<text text-anchor="middle" x="269" y="-204.892" font-family="Times,serif" font-size="14.00">+</text>
</g>
<!-- r -->
<g id="node6" class="node"><title>r</title>
<polygon fill="lightgrey" stroke="lightgrey" points="466,-115.092 436,-115.092 424,-103.092 424,-91.0918 436,-79.0918 466,-79.0918 478,-91.0918 478,-103.092 466,-115.092"/>
<path fill="lightgrey" stroke="lightgrey" d="M436,-115.092C430,-115.092 424,-109.092 424,-103.092"/>
<path fill="lightgrey" stroke="lightgrey" d="M424,-91.0918C424,-85.0918 430,-79.0918 436,-79.0918"/>
<path fill="lightgrey" stroke="lightgrey" d="M466,-79.0918C472,-79.0918 478,-85.0918 478,-91.0918"/>
<path fill="lightgrey" stroke="lightgrey" d="M478,-103.092C478,-109.092 472,-115.092 466,-115.092"/>
<polyline fill="none" stroke="black" points="466,-115.092 436,-115.092 "/>
<path fill="none" stroke="black" d="M436,-115.092C430,-115.092 424,-109.092 424,-103.092"/>
<polyline fill="none" stroke="black" points="424,-103.092 424,-91.0918 "/>
<path fill="none" stroke="black" d="M424,-91.0918C424,-85.0918 430,-79.0918 436,-79.0918"/>
<polyline fill="none" stroke="black" points="436,-79.0918 466,-79.0918 "/>
<path fill="none" stroke="black" d="M466,-79.0918C472,-79.0918 478,-85.0918 478,-91.0918"/>
<polyline fill="none" stroke="black" points="478,-91.0918 478,-103.092 "/>
<path fill="none" stroke="black" d="M478,-103.092C478,-109.092 472,-115.092 466,-115.092"/>
<text text-anchor="middle" x="451" y="-93.3918" font-family="Times,serif" font-size="14.00">Read</text>
</g>
<!-- l&#45;&gt;r -->
<g id="edge12" class="edge"><title>l&#45;&gt;r</title>
<path fill="none" stroke="black" d="M232.112,-111.474C275.842,-104.752 363.973,-96.967 413.707,-95.245"/>
<polygon fill="black" stroke="black" points="413.806,-98.7437 423.707,-94.9722 413.615,-91.7463 413.806,-98.7437"/>
</g>
<!-- c&#45;&gt;l -->
<g id="edge34" class="edge"><title>c&#45;&gt;l</title>
<path fill="none" stroke="black" d="M305.697,-174.652C288.586,-172.01 266.473,-166.515 250,-155.092 243.717,-150.734 245.475,-146.429 240,-141.092 239.847,-140.943 239.693,-140.794 239.538,-140.645"/>
<polygon fill="black" stroke="black" points="241.895,-138.056 232.011,-134.24 237.359,-143.387 241.895,-138.056"/>
<text text-anchor="middle" x="269" y="-175.892" font-family="Times,serif" font-size="14.00">Cancel</text>
</g>
<!-- c&#45;&gt;l -->
<g id="edge8" class="edge"><title>c&#45;&gt;l</title>
<path fill="none" stroke="black" stroke-dasharray="5,2" d="M314.046,-158.907C306.537,-152.168 297.381,-144.983 288,-140.092 273.771,-132.672 256.813,-127.584 242.021,-124.187"/>
<polygon fill="black" stroke="black" points="242.696,-120.752 232.187,-122.097 241.241,-127.599 242.696,-120.752"/>
<text text-anchor="middle" x="269" y="-143.892" font-family="Times,serif" font-size="14.00">Cancel</text>
</g>
<!-- c&#45;&gt;r -->
<g id="edge36" class="edge"><title>c&#45;&gt;r</title>
<path fill="none" stroke="green" d="M358.541,-158.973C364.846,-154.393 371.645,-149.519 378,-145.092 390.102,-136.662 403.511,-127.639 415.444,-119.717"/>
<polygon fill="green" stroke="green" points="417.423,-122.604 423.832,-114.168 413.561,-116.766 417.423,-122.604"/>
<text text-anchor="middle" x="392" y="-148.892" font-family="Times,serif" font-size="14.00">Save</text>
</g>
<!-- v -->
<g id="node7" class="node"><title>v</title>
<polygon fill="lightgrey" stroke="lightgrey" points="749.5,-81.0918 710.5,-81.0918 698.5,-69.0918 698.5,-57.0918 710.5,-45.0918 749.5,-45.0918 761.5,-57.0918 761.5,-69.0918 749.5,-81.0918"/>
<path fill="lightgrey" stroke="lightgrey" d="M710.5,-81.0918C704.5,-81.0918 698.5,-75.0918 698.5,-69.0918"/>
<path fill="lightgrey" stroke="lightgrey" d="M698.5,-57.0918C698.5,-51.0918 704.5,-45.0918 710.5,-45.0918"/>
<path fill="lightgrey" stroke="lightgrey" d="M749.5,-45.0918C755.5,-45.0918 761.5,-51.0918 761.5,-57.0918"/>
<path fill="lightgrey" stroke="lightgrey" d="M761.5,-69.0918C761.5,-75.0918 755.5,-81.0918 749.5,-81.0918"/>
<polyline fill="none" stroke="black" points="749.5,-81.0918 710.5,-81.0918 "/>
<path fill="none" stroke="black" d="M710.5,-81.0918C704.5,-81.0918 698.5,-75.0918 698.5,-69.0918"/>
<polyline fill="none" stroke="black" points="698.5,-69.0918 698.5,-57.0918 "/>
<path fill="none" stroke="black" d="M698.5,-57.0918C698.5,-51.0918 704.5,-45.0918 710.5,-45.0918"/>
<polyline fill="none" stroke="black" points="710.5,-45.0918 749.5,-45.0918 "/>
<path fill="none" stroke="black" d="M749.5,-45.0918C755.5,-45.0918 761.5,-51.0918 761.5,-57.0918"/>
<polyline fill="none" stroke="black" points="761.5,-57.0918 761.5,-69.0918 "/>
<path fill="none" stroke="black" d="M761.5,-69.0918C761.5,-75.0918 755.5,-81.0918 749.5,-81.0918"/>
<text text-anchor="middle" x="730" y="-59.3918" font-family="Times,serif" font-size="14.00">preView</text>
</g>
<!-- c&#45;&gt;v -->
<g id="edge40" class="edge"><title>c&#45;&gt;v</title>
<path fill="none" stroke="green" d="M360.025,-179.623C410.667,-183.665 525.438,-188.478 616,-160.092 647.785,-150.129 654.702,-142.761 680,-121.092 690.901,-111.754 701.394,-99.8662 709.854,-89.2872"/>
<polygon fill="green" stroke="green" points="712.799,-91.2012 716.171,-81.1574 707.271,-86.9061 712.799,-91.2012"/>
<text text-anchor="middle" x="519" y="-184.892" font-family="Times,serif" font-size="14.00">Preview</text>
</g>
<!-- p -->
<g id="node8" class="node"><title>p</title>
<polygon fill="lightgrey" stroke="lightgrey" points="745,-189.092 715,-189.092 703,-177.092 703,-165.092 715,-153.092 745,-153.092 757,-165.092 757,-177.092 745,-189.092"/>
<path fill="lightgrey" stroke="lightgrey" d="M715,-189.092C709,-189.092 703,-183.092 703,-177.092"/>
<path fill="lightgrey" stroke="lightgrey" d="M703,-165.092C703,-159.092 709,-153.092 715,-153.092"/>
<path fill="lightgrey" stroke="lightgrey" d="M745,-153.092C751,-153.092 757,-159.092 757,-165.092"/>
<path fill="lightgrey" stroke="lightgrey" d="M757,-177.092C757,-183.092 751,-189.092 745,-189.092"/>
<polyline fill="none" stroke="black" points="745,-189.092 715,-189.092 "/>
<path fill="none" stroke="black" d="M715,-189.092C709,-189.092 703,-183.092 703,-177.092"/>
<polyline fill="none" stroke="black" points="703,-177.092 703,-165.092 "/>
<path fill="none" stroke="black" d="M703,-165.092C703,-159.092 709,-153.092 715,-153.092"/>
<polyline fill="none" stroke="black" points="715,-153.092 745,-153.092 "/>
<path fill="none" stroke="black" d="M745,-153.092C751,-153.092 757,-159.092 757,-165.092"/>
<polyline fill="none" stroke="black" points="757,-165.092 757,-177.092 "/>
<path fill="none" stroke="black" d="M757,-177.092C757,-183.092 751,-189.092 745,-189.092"/>
<text text-anchor="middle" x="730" y="-167.392" font-family="Times,serif" font-size="14.00">Print</text>
</g>
<!-- c&#45;&gt;p -->
<g id="edge6" class="edge"><title>c&#45;&gt;p</title>
<path fill="none" stroke="green" stroke-dasharray="5,2" d="M360.337,-184.712C366.11,-186.091 372.223,-187.331 378,-188.092 511.073,-205.62 547.81,-211.358 680,-188.092 684.409,-187.316 688.954,-186.2 693.415,-184.906"/>
<polygon fill="green" stroke="green" points="694.506,-188.231 702.964,-181.849 692.373,-181.564 694.506,-188.231"/>
<text text-anchor="middle" x="519" y="-207.892" font-family="Times,serif" font-size="14.00">Print</text>
</g>
<!-- c&#45;&gt;p -->
<g id="edge38" class="edge"><title>c&#45;&gt;p</title>
<path fill="none" stroke="green" d="M360.161,-195.351C365.842,-198.677 371.964,-201.811 378,-204.092 389.243,-208.34 484.623,-222.228 496,-223.092 577.89,-229.311 603.732,-236.552 680,-206.092 686.942,-203.319 693.828,-199.365 700.149,-195.106"/>
<polygon fill="green" stroke="green" points="702.296,-197.873 708.369,-189.191 698.207,-192.191 702.296,-197.873"/>
<text text-anchor="middle" x="519" y="-230.892" font-family="Times,serif" font-size="14.00">Print</text>
</g>
<!-- u -->
<g id="node5" class="node"><title>u</title>
<polygon fill="lightyellow" stroke="lightyellow" points="604,-81.0918 572,-81.0918 560,-69.0918 560,-57.0918 572,-45.0918 604,-45.0918 616,-57.0918 616,-69.0918 604,-81.0918"/>
<path fill="lightyellow" stroke="lightyellow" d="M572,-81.0918C566,-81.0918 560,-75.0918 560,-69.0918"/>
<path fill="lightyellow" stroke="lightyellow" d="M560,-57.0918C560,-51.0918 566,-45.0918 572,-45.0918"/>
<path fill="lightyellow" stroke="lightyellow" d="M604,-45.0918C610,-45.0918 616,-51.0918 616,-57.0918"/>
<path fill="lightyellow" stroke="lightyellow" d="M616,-69.0918C616,-75.0918 610,-81.0918 604,-81.0918"/>
<polyline fill="none" stroke="black" points="604,-81.0918 572,-81.0918 "/>
<path fill="none" stroke="black" d="M572,-81.0918C566,-81.0918 560,-75.0918 560,-69.0918"/>
<polyline fill="none" stroke="black" points="560,-69.0918 560,-57.0918 "/>
<path fill="none" stroke="black" d="M560,-57.0918C560,-51.0918 566,-45.0918 572,-45.0918"/>
<polyline fill="none" stroke="black" points="572,-45.0918 604,-45.0918 "/>
<path fill="none" stroke="black" d="M604,-45.0918C610,-45.0918 616,-51.0918 616,-57.0918"/>
<polyline fill="none" stroke="black" points="616,-57.0918 616,-69.0918 "/>
<path fill="none" stroke="black" d="M616,-69.0918C616,-75.0918 610,-81.0918 604,-81.0918"/>
<text text-anchor="middle" x="588" y="-59.3918" font-family="Times,serif" font-size="14.00">Update</text>
</g>
<!-- u&#45;&gt;r -->
<g id="edge24" class="edge"><title>u&#45;&gt;r</title>
<path fill="none" stroke="green" d="M559.595,-73.5434C553.832,-75.5412 547.754,-77.5022 542,-79.0918 524.613,-83.8946 505.004,-87.9695 488.539,-91.0212"/>
<polygon fill="green" stroke="green" points="487.45,-87.6608 478.227,-92.8761 488.689,-94.5502 487.45,-87.6608"/>
<text text-anchor="middle" x="519" y="-93.8918" font-family="Times,serif" font-size="14.00">Save</text>
</g>
<!-- u&#45;&gt;r -->
<g id="edge26" class="edge"><title>u&#45;&gt;r</title>
<path fill="none" stroke="black" d="M559.884,-57.0048C541.337,-54.0756 516.494,-52.6201 496,-60.0918 488.78,-62.7241 481.922,-67.1203 475.862,-71.9811"/>
<polygon fill="black" stroke="black" points="473.334,-69.544 468.135,-78.7755 477.956,-74.8011 473.334,-69.544"/>
<text text-anchor="middle" x="519" y="-63.8918" font-family="Times,serif" font-size="14.00">Cancel</text>
</g>
<!-- u&#45;&gt;v -->
<g id="edge28" class="edge"><title>u&#45;&gt;v</title>
<path fill="none" stroke="green" d="M616.326,-63.0918C636.752,-63.0918 665.017,-63.0918 688.127,-63.0918"/>
<polygon fill="green" stroke="green" points="688.336,-66.5919 698.336,-63.0918 688.336,-59.5919 688.336,-66.5919"/>
<text text-anchor="middle" x="657" y="-66.8918" font-family="Times,serif" font-size="14.00">Preview</text>
</g>
<!-- u&#45;&gt;p -->
<g id="edge30" class="edge"><title>u&#45;&gt;p</title>
<path fill="none" stroke="green" d="M616.37,-72.9407C639.262,-81.5155 669.768,-93.833 680,-102.092 694.162,-113.522 706.09,-130.046 714.632,-144.057"/>
<polygon fill="green" stroke="green" points="711.683,-145.949 719.745,-152.823 717.73,-142.422 711.683,-145.949"/>
<text text-anchor="middle" x="657" y="-105.892" font-family="Times,serif" font-size="14.00">Print</text>
</g>
<!-- r&#45;&gt;l -->
<g id="edge14" class="edge"><title>r&#45;&gt;l</title>
<path fill="none" stroke="black" d="M423.707,-103.737C379.946,-110.448 292.084,-118.208 242.4,-119.935"/>
<polygon fill="black" stroke="black" points="242.013,-116.444 232.112,-120.215 242.204,-123.441 242.013,-116.444"/>
</g>
<!-- r&#45;&gt;l -->
<g id="edge16" class="edge"><title>r&#45;&gt;l</title>
<path fill="none" stroke="black" d="M423.847,-91.8523C394.886,-86.8442 346.883,-80.9002 306,-87.0918 284.216,-90.3908 260.642,-97.5158 241.856,-104.104"/>
<polygon fill="black" stroke="black" points="240.447,-100.891 232.23,-107.579 242.824,-107.476 240.447,-100.891"/>
<text text-anchor="middle" x="333" y="-90.8918" font-family="Times,serif" font-size="14.00">Delete</text>
</g>
<!-- r&#45;&gt;u -->
<g id="edge22" class="edge"><title>r&#45;&gt;u</title>
<path fill="none" stroke="black" d="M457.487,-79.0669C463.76,-61.9801 475.854,-37.3076 496,-26.0918 513.863,-16.1469 522.754,-19.1954 542,-26.0918 549.332,-28.7188 556.324,-33.1129 562.518,-37.9734"/>
<polygon fill="black" stroke="black" points="560.56,-40.9059 570.426,-44.7682 565.122,-35.5965 560.56,-40.9059"/>
<text text-anchor="middle" x="519" y="-29.8918" font-family="Times,serif" font-size="14.00">Edit</text>
</g>
<!-- r&#45;&gt;v -->
<g id="edge18" class="edge"><title>r&#45;&gt;v</title>
<path fill="none" stroke="black" d="M456.124,-78.7802C461.587,-59.3376 473.306,-29.5905 496,-16.0918 557.474,20.4731 642.516,-14.0215 691.03,-40.1136"/>
<polygon fill="black" stroke="black" points="689.493,-43.2629 699.939,-45.0324 692.877,-37.1349 689.493,-43.2629"/>
<text text-anchor="middle" x="588" y="-12.8918" font-family="Times,serif" font-size="14.00">Preview</text>
</g>
<!-- r&#45;&gt;p -->
<g id="edge20" class="edge"><title>r&#45;&gt;p</title>
<path fill="none" stroke="black" d="M478.051,-104.225C483.951,-105.833 490.19,-107.526 496,-109.092 565.704,-127.87 647.234,-149.485 693.023,-161.592"/>
<polygon fill="black" stroke="black" points="692.216,-164.999 702.779,-164.171 694.005,-158.232 692.216,-164.999"/>
<text text-anchor="middle" x="588" y="-144.892" font-family="Times,serif" font-size="14.00">Print</text>
</g>
<!-- l0 -->
<g id="node9" class="node"><title>l0</title>
<polygon fill="lightgrey" stroke="lightgrey" points="58,-246.092 28,-246.092 16,-234.092 16,-222.092 28,-210.092 58,-210.092 70,-222.092 70,-234.092 58,-246.092"/>
<path fill="lightgrey" stroke="lightgrey" d="M28,-246.092C22,-246.092 16,-240.092 16,-234.092"/>
<path fill="lightgrey" stroke="lightgrey" d="M16,-222.092C16,-216.092 22,-210.092 28,-210.092"/>
<path fill="lightgrey" stroke="lightgrey" d="M58,-210.092C64,-210.092 70,-216.092 70,-222.092"/>
<path fill="lightgrey" stroke="lightgrey" d="M70,-234.092C70,-240.092 64,-246.092 58,-246.092"/>
<polyline fill="none" stroke="black" points="58,-246.092 28,-246.092 "/>
<path fill="none" stroke="black" d="M28,-246.092C22,-246.092 16,-240.092 16,-234.092"/>
<polyline fill="none" stroke="black" points="16,-234.092 16,-222.092 "/>
<path fill="none" stroke="black" d="M16,-222.092C16,-216.092 22,-210.092 28,-210.092"/>
<polyline fill="none" stroke="black" points="28,-210.092 58,-210.092 "/>
<path fill="none" stroke="black" d="M58,-210.092C64,-210.092 70,-216.092 70,-222.092"/>
<polyline fill="none" stroke="black" points="70,-222.092 70,-234.092 "/>
<path fill="none" stroke="black" d="M70,-234.092C70,-240.092 64,-246.092 58,-246.092"/>
<text text-anchor="middle" x="43" y="-224.392" font-family="Times,serif" font-size="14.00">From</text>
</g>
<!-- l1 -->
<g id="node10" class="node"><title>l1</title>
<polygon fill="lightgrey" stroke="lightgrey" points="220,-246.092 190,-246.092 178,-234.092 178,-222.092 190,-210.092 220,-210.092 232,-222.092 232,-234.092 220,-246.092"/>
<path fill="lightgrey" stroke="lightgrey" d="M190,-246.092C184,-246.092 178,-240.092 178,-234.092"/>
<path fill="lightgrey" stroke="lightgrey" d="M178,-222.092C178,-216.092 184,-210.092 190,-210.092"/>
<path fill="lightgrey" stroke="lightgrey" d="M220,-210.092C226,-210.092 232,-216.092 232,-222.092"/>
<path fill="lightgrey" stroke="lightgrey" d="M232,-234.092C232,-240.092 226,-246.092 220,-246.092"/>
<polyline fill="none" stroke="black" points="220,-246.092 190,-246.092 "/>
<path fill="none" stroke="black" d="M190,-246.092C184,-246.092 178,-240.092 178,-234.092"/>
<polyline fill="none" stroke="black" points="178,-234.092 178,-222.092 "/>
<path fill="none" stroke="black" d="M178,-222.092C178,-216.092 184,-210.092 190,-210.092"/>
<polyline fill="none" stroke="black" points="190,-210.092 220,-210.092 "/>
<path fill="none" stroke="black" d="M220,-210.092C226,-210.092 232,-216.092 232,-222.092"/>
<polyline fill="none" stroke="black" points="232,-222.092 232,-234.092 "/>
<path fill="none" stroke="black" d="M232,-234.092C232,-240.092 226,-246.092 220,-246.092"/>
<text text-anchor="middle" x="205" y="-224.392" font-family="Times,serif" font-size="14.00">To</text>
</g>
<!-- l0&#45;&gt;l1 -->
<g id="edge42" class="edge"><title>l0&#45;&gt;l1</title>
<path fill="none" stroke="black" stroke-dasharray="5,2" d="M70.0713,-214.523C73.6507,-212.009 77.09,-209.187 80,-206.092 91.7118,-193.635 83.352,-180.911 98,-172.092 121.607,-157.878 136.393,-157.878 160,-172.092 172.13,-179.395 169.162,-188.785 175.766,-201.52"/>
<polygon fill="black" stroke="black" points="172.883,-203.505 181.335,-209.893 178.711,-199.628 172.883,-203.505"/>
<text text-anchor="middle" x="129" y="-175.892" font-family="Times,serif" font-size="14.00">GET Anon</text>
</g>
<!-- l0&#45;&gt;l1 -->
<g id="edge44" class="edge"><title>l0&#45;&gt;l1</title>
<path fill="none" stroke="green" stroke-dasharray="5,2" d="M70.2144,-217.473C78.9077,-214.462 88.7332,-211.596 98,-210.092 125.2,-205.678 132.962,-204.775 160,-210.092 162.809,-210.644 165.665,-211.377 168.503,-212.232"/>
<polygon fill="green" stroke="green" points="167.396,-215.553 177.991,-215.521 169.689,-208.939 167.396,-215.553"/>
<text text-anchor="middle" x="129" y="-213.892" font-family="Times,serif" font-size="14.00">PUT Anon</text>
</g>
<!-- l0&#45;&gt;l1 -->
<g id="edge46" class="edge"><title>l0&#45;&gt;l1</title>
<path fill="none" stroke="black" d="M70.0629,-228.092C96.5616,-228.092 137.839,-228.092 167.567,-228.092"/>
<polygon fill="black" stroke="black" points="167.948,-231.592 177.948,-228.092 167.948,-224.592 167.948,-231.592"/>
<text text-anchor="middle" x="129" y="-231.892" font-family="Times,serif" font-size="14.00">GET Reg</text>
</g>
<!-- l0&#45;&gt;l1 -->
<g id="edge48" class="edge"><title>l0&#45;&gt;l1</title>
<path fill="none" stroke="green" d="M70.167,-239.298C78.8575,-242.476 88.6933,-245.502 98,-247.092 125.162,-251.731 133.015,-252.669 160,-247.092 162.658,-246.542 165.354,-245.824 168.034,-244.99"/>
<polygon fill="green" stroke="green" points="169.356,-248.234 177.576,-241.549 166.982,-241.648 169.356,-248.234"/>
<text text-anchor="middle" x="129" y="-254.892" font-family="Times,serif" font-size="14.00">PUT Reg</text>
</g>
</g>
</svg>
